<svg width="953" height="986" xmlns="http://www.w3.org/2000/svg" xmlns:xlink="http://www.w3.org/1999/xlink" xml:space="preserve" overflow="hidden"><g transform="translate(-1723 -745)"><path d="M209.687 977.085C198.695 966.095 197.779 948.236 207.397 939.077 211.061 934.956 222.969 930.835 233.503 929.003 267.853 923.508 295.791 908.396 317.317 884.584 328.767 871.762 337.927 858.94 337.927 855.734 337.927 852.071 332.889 843.371 326.477 836.044 304.035 809.026 291.211 773.308 291.211 737.589 291.211 719.272 293.501 699.123 295.791 692.255L300.829 680.348 252.281 663.863C138.239 624.023 57.6318 566.324 24.1978 500.383-12.9002 427.572-8.32023 360.715 37.0215 315.38 88.3178 264.55 181.291 258.597 252.739 301.642L278.387 317.212 278.387 290.652C278.387 205.02 312.737 136.331 385.559 77.2581 408.459 58.025 433.191 34.2127 440.519 24.1385 463.877-9.29019 486.319-8.83234 511.509 25.0542 519.295 36.0445 543.569 59.3989 565.553 77.2581 637.001 134.957 672.267 205.478 672.267 290.652L672.267 317.212 697.914 301.642C769.362 258.597 862.336 264.55 913.632 315.38 949.814 351.556 959.432 395.06 944.776 451.842 933.326 495.804 916.38 523.737 876.534 562.661 845.848 593.342 830.734 603.875 789.056 624.939 761.576 639.135 718.524 656.994 694.25 665.237L649.824 679.89 654.405 692.255C657.153 699.123 659.443 719.272 659.443 737.589 659.443 772.85 647.993 805.821 624.635 836.502 618.223 845.202 612.727 854.361 612.727 856.651 612.727 859.398 621.887 871.762 633.337 884.584 654.863 908.396 682.8 923.508 717.151 929.003 727.685 930.835 739.592 934.956 743.257 939.077 752.874 948.236 751.958 966.095 740.967 977.085 733.638 984.412 728.142 985.786 710.281 983.039 653.031 975.711 602.651 944.115 571.507 895.574L564.637 884.584 539.447 893.285C522.959 898.78 500.975 901.527 475.327 901.527 449.679 901.527 427.695 898.78 411.207 893.285L386.017 884.584 379.147 895.574C348.003 944.115 297.623 975.711 240.373 983.039 222.511 985.786 217.016 984.412 209.687 977.085ZM448.305 642.34C459.297 621.276 437.313 570.904 389.223 505.42 357.163 461.917 270.601 373.537 239.915 352.472 195.489 321.791 132.285 314.464 91.5236 335.529 22.3658 370.789 44.3498 483.898 132.744 549.381 184.955 587.847 239.457 611.201 335.637 635.929 407.085 654.705 440.519 656.536 448.305 642.34ZM613.643 636.387C710.738 611.201 765.241 587.847 817.91 549.381 906.304 483.898 928.288 370.789 859.13 335.529 818.368 314.464 755.164 321.791 710.738 352.472 680.052 373.537 593.491 461.917 561.431 505.42 513.341 570.904 491.357 621.276 502.349 642.34 510.135 656.536 541.279 654.705 613.643 636.387ZM493.189 515.952C501.891 501.299 522.043 473.823 537.615 454.132 553.645 434.899 565.095 417.498 562.805 416.582 560.973 415.208 540.363 411.545 517.463 408.797 484.487 404.218 466.167 404.218 433.191 408.797 410.291 411.545 389.681 415.208 387.849 416.582 385.559 417.498 397.009 434.899 413.039 454.132 428.611 473.823 448.763 501.299 457.465 515.952 466.167 530.148 473.953 541.596 475.327 541.596 476.701 541.596 484.487 530.148 493.189 515.952ZM475.327 357.967C522.043 357.967 545.859 360.257 572.881 367.126 598.071 373.537 609.521 374.453 610.895 370.789 611.81 368.042 614.559 357.052 616.849 346.519L620.97 326.828 583.415 314.464C549.523 303.016 540.363 302.1 475.327 302.1 410.291 302.1 401.131 303.016 367.239 314.464L329.683 326.828 333.805 346.519C336.095 357.052 338.843 368.042 339.759 370.789 341.133 374.453 352.583 373.537 377.773 367.126 404.795 360.257 428.611 357.967 475.327 357.967ZM368.613 261.803C398.841 253.102 415.329 251.27 475.327 251.27 535.783 251.27 551.813 252.644 582.499 261.803 602.193 267.298 619.597 270.961 620.97 270.045 621.887 268.672 620.055 255.85 616.391 241.196L609.979 215.094 583.415 206.851C517.921 186.703 432.733 186.703 367.239 206.851 339.301 215.094 338.843 216.01 331.515 254.934 329.683 264.092 329.225 271.877 330.599 271.877 331.973 271.877 349.377 267.298 368.613 261.803ZM475.327 142.284C506.929 142.284 540.363 144.573 549.981 147.321 559.141 150.068 566.927 150.526 566.927 148.237 566.927 146.405 546.317 126.714 521.127 105.191L475.327 65.8096 429.527 105.191C404.337 126.714 383.727 146.405 383.727 148.237 383.727 150.526 391.513 150.068 401.131 147.321 410.291 144.573 443.725 142.284 475.327 142.284Z" fill-rule="evenodd" transform="matrix(1 0 0 -1 1724 1730)"/></g></svg>